<svg width="16" height="16" viewBox="0 0 16 16" fill="none" xmlns="http://www.w3.org/2000/svg">
<path fill-rule="evenodd" clip-rule="evenodd" d="M6.69295 8.59979C5.71795 7.62479 4.98295 6.53313 4.49461 5.42563C4.39128 5.19146 4.45211 4.91729 4.63295 4.73646L5.31545 4.05479C5.87461 3.49562 5.87461 2.70479 5.38628 2.21646L4.40795 1.23812C3.75711 0.587292 2.70211 0.587292 2.05128 1.23812L1.50795 1.78146C0.890447 2.39896 0.632947 3.28979 0.799614 4.17312C1.21128 6.35062 2.47628 8.73479 4.51711 10.7756C6.55795 12.8165 8.94211 14.0815 11.1196 14.4931C12.0029 14.6598 12.8938 14.4023 13.5113 13.7848L14.0538 13.2423C14.7046 12.5915 14.7046 11.5365 14.0538 10.8856L13.0763 9.90812C12.5879 9.41979 11.7963 9.41979 11.3088 9.90812L10.5563 10.6615C10.3754 10.8423 10.1013 10.9031 9.86711 10.7998C8.75961 10.3106 7.66795 9.57479 6.69295 8.59979Z" fill="white" stroke="white" stroke-width="1.5" stroke-linecap="round" stroke-linejoin="round"/>
</svg>
