<svg width="61" height="61" viewBox="0 0 61 61" fill="none" xmlns="http://www.w3.org/2000/svg">
<rect width="60.1421" height="60.1421" rx="30.0711" fill="#010101"/>
<path fill-rule="evenodd" clip-rule="evenodd" d="M34.7972 34.7638C34.1897 39.1233 30.1745 42.1731 25.8119 41.5888C21.4492 41.0046 18.378 37.0058 18.939 32.6401C19.5 28.2743 23.4823 25.1819 27.851 25.7195L27.992 25.7394L27.3425 30.3606L27.2808 30.3519C26.2674 30.2264 25.2522 30.572 24.5258 31.2897C23.7993 32.0074 23.4416 33.0183 23.5548 34.0332C23.6749 35.1978 24.4055 36.2106 25.4727 36.6919C26.4323 37.1307 27.5427 37.091 28.4684 36.5847C29.3942 36.0785 30.0268 35.1651 30.1751 34.1204L30.1801 34.1211L32.3134 18.9413C32.3647 18.5767 32.7018 18.3227 33.0664 18.3739L37.0275 18.9306L36.9955 19.1578C36.6195 21.8339 38.3062 24.3679 40.9202 25.0537C41.2583 25.129 41.4846 25.448 41.4439 25.792L40.9651 29.1985C40.9414 29.3819 40.8423 29.547 40.6917 29.6542C40.5411 29.7614 40.3526 29.801 40.1716 29.7634C38.5381 29.3783 37.0404 28.5553 35.8396 27.3827L34.8007 34.7749L34.7972 34.7638Z" fill="white" stroke="white" stroke-width="1.5" stroke-linecap="round" stroke-linejoin="round"/>
</svg>
