<svg width="25" height="26" viewBox="0 0 25 26" fill="none" xmlns="http://www.w3.org/2000/svg">
<g filter="url(#filter0_d_4897_55070)">
<path fill-rule="evenodd" clip-rule="evenodd" d="M17.8717 8.70018L18.8225 8.05602C19.4067 7.66018 19.7567 7.00018 19.7567 6.29435V6.29435C19.7567 5.11935 18.8042 4.16602 17.6284 4.16602H6.88419C5.70919 4.16602 4.75586 5.11852 4.75586 6.29435V6.29435C4.75586 7.00018 5.10586 7.66018 5.69003 8.05602L6.64086 8.70018C10.0317 10.9985 14.4809 10.9985 17.8717 8.70018V8.70018Z" fill="#F94B00" stroke="#F94B00" stroke-width="1.5" stroke-linecap="round" stroke-linejoin="round"/>
<path d="M4.75 6.29492V14.1666C4.75 15.5474 5.86917 16.6666 7.25 16.6666H17.25C18.6308 16.6666 19.75 15.5474 19.75 14.1666V6.29492" stroke="#F94B00" stroke-width="1.5" stroke-linecap="round" stroke-linejoin="round"/>
</g>
<defs>
<filter id="filter0_d_4897_55070" x="0" y="3.41602" width="24.5059" height="22" filterUnits="userSpaceOnUse" color-interpolation-filters="sRGB">
<feFlood flood-opacity="0" result="BackgroundImageFix"/>
<feColorMatrix in="SourceAlpha" type="matrix" values="0 0 0 0 0 0 0 0 0 0 0 0 0 0 0 0 0 0 127 0" result="hardAlpha"/>
<feOffset dy="4"/>
<feGaussianBlur stdDeviation="2"/>
<feComposite in2="hardAlpha" operator="out"/>
<feColorMatrix type="matrix" values="0 0 0 0 0 0 0 0 0 0 0 0 0 0 0 0 0 0 0.25 0"/>
<feBlend mode="normal" in2="BackgroundImageFix" result="effect1_dropShadow_4897_55070"/>
<feBlend mode="normal" in="SourceGraphic" in2="effect1_dropShadow_4897_55070" result="shape"/>
</filter>
</defs>
</svg>
