<svg width="61" height="61" viewBox="0 0 61 61" fill="none" xmlns="http://www.w3.org/2000/svg">
<rect width="60.1421" height="60.1421" rx="30.0711" fill="#1877F2"/>
<path fill-rule="evenodd" clip-rule="evenodd" d="M32.4229 32.4335L36.0535 31.9232C36.3565 31.8806 36.5915 31.6374 36.6237 31.3332L37.0573 27.2329C37.0789 27.0288 37.0052 26.826 36.8576 26.6834C36.7099 26.5407 36.5048 26.4741 36.3015 26.5026L31.6806 27.152L31.3095 24.5113C31.207 23.7821 31.7151 23.1079 32.4443 23.0054L35.7452 22.5415C36.1098 22.4903 36.3638 22.1531 36.3126 21.7885L35.7559 17.8275C35.7046 17.4629 35.3675 17.2088 35.0029 17.2601L31.702 17.724C28.056 18.2364 25.5156 21.6075 26.0281 25.2536L26.3992 27.8943L23.0983 28.3582C22.7337 28.4095 22.4796 28.7466 22.5309 29.1112L23.0876 33.0722C23.1388 33.4369 23.4759 33.6909 23.8405 33.6396L27.1414 33.1757L28.3476 41.7581C28.3988 42.1227 28.736 42.3767 29.1006 42.3255L33.0616 41.7688C33.4262 41.7175 33.6803 41.3804 33.629 41.0158L32.4229 32.4335Z" fill="white" stroke="white" stroke-width="1.5" stroke-linecap="round" stroke-linejoin="round"/>
</svg>
