<svg width="61" height="61" viewBox="0 0 61 61" fill="none" xmlns="http://www.w3.org/2000/svg">
<rect width="60.1421" height="60.1421" rx="30.0711" fill="#0A66C2"/>
<path fill-rule="evenodd" clip-rule="evenodd" d="M22.4592 19.0229L34.3477 17.3521C37.6261 16.8913 40.6576 19.1756 41.1183 22.4541L42.7901 34.3492C43.2506 37.6263 40.9663 40.6577 37.6878 41.1185L25.7941 42.79C22.5156 43.2508 19.4842 40.9665 19.0234 37.688L17.3526 25.7995C16.8915 22.5184 19.1781 19.484 22.4592 19.0229V19.0229Z" stroke="white" stroke-width="3" stroke-linecap="round" stroke-linejoin="round"/>
<path d="M24.7813 29.603L25.7833 36.7329" stroke="white" stroke-width="3" stroke-linecap="round" stroke-linejoin="round"/>
<path d="M30.5352 36.065L29.9507 31.9059C29.7201 30.2647 30.8628 28.7482 32.504 28.5175V28.5175C34.1452 28.2869 35.6617 29.4296 35.8923 31.0708L36.4769 35.23" stroke="white" stroke-width="3" stroke-linecap="round" stroke-linejoin="round"/>
<path d="M24.1733 25.2964C24.0095 25.3194 23.8949 25.4715 23.9193 25.635C23.9423 25.7988 24.0944 25.9134 24.2581 25.8904C24.4218 25.8673 24.5364 25.7152 24.5134 25.5515C24.4902 25.3865 24.3383 25.2732 24.1733 25.2964" stroke="white" stroke-width="3" stroke-linecap="round" stroke-linejoin="round"/>
</svg>
