<svg width="20" height="20" viewBox="0 0 20 20" fill="none" xmlns="http://www.w3.org/2000/svg">
<path fill-rule="evenodd" clip-rule="evenodd" d="M10.0007 10C7.94482 10 6.26482 8.32083 6.26482 6.26417C6.26482 4.2075 7.94482 2.5 10.0007 2.5C12.0565 2.5 13.7365 4.17917 13.7365 6.23583C13.7365 8.2925 12.0565 10 10.0007 10ZM15.834 17.5H4.16732C3.70898 17.5 3.33398 17.125 3.33398 16.6667V15.8333C3.33398 14 4.83398 12.5 6.66732 12.5H13.334C15.1673 12.5 16.6673 14 16.6673 15.8333V16.6667C16.6673 17.125 16.2923 17.5 15.834 17.5Z" fill="#A7A7A7"/>
<path d="M10.0007 10V9.5C8.22089 9.5 6.76482 8.04462 6.76482 6.26417H6.26482H5.76482C5.76482 8.59705 7.66875 10.5 10.0007 10.5V10ZM6.26482 6.26417H6.76482C6.76482 4.4788 8.22578 3 10.0007 3V2.5V2C7.66385 2 5.76482 3.93621 5.76482 6.26417H6.26482ZM10.0007 2.5V3C11.7804 3 13.2365 4.45538 13.2365 6.23583H13.7365H14.2365C14.2365 3.90295 12.3326 2 10.0007 2V2.5ZM13.7365 6.23583H13.2365C13.2365 8.0212 11.7755 9.5 10.0007 9.5V10V10.5C12.3374 10.5 14.2365 8.56379 14.2365 6.23583H13.7365ZM15.834 17.5V17H4.16732V17.5V18H15.834V17.5ZM4.16732 17.5V17C3.98513 17 3.83398 16.8489 3.83398 16.6667H3.33398H2.83398C2.83398 17.4011 3.43284 18 4.16732 18V17.5ZM3.33398 16.6667H3.83398V15.8333H3.33398H2.83398V16.6667H3.33398ZM3.33398 15.8333H3.83398C3.83398 14.2761 5.11013 13 6.66732 13V12.5V12C4.55784 12 2.83398 13.7239 2.83398 15.8333H3.33398ZM6.66732 12.5V13H13.334V12.5V12H6.66732V12.5ZM13.334 12.5V13C14.8912 13 16.1673 14.2761 16.1673 15.8333H16.6673H17.1673C17.1673 13.7239 15.4435 12 13.334 12V12.5ZM16.6673 15.8333H16.1673V16.6667H16.6673H17.1673V15.8333H16.6673ZM16.6673 16.6667H16.1673C16.1673 16.8489 16.0162 17 15.834 17V17.5V18C16.5685 18 17.1673 17.4011 17.1673 16.6667H16.6673Z" fill="#A7A7A7"/>
</svg>
