<svg width="20" height="20" viewBox="0 0 20 20" fill="none" xmlns="http://www.w3.org/2000/svg">
<rect x="17.5" y="17.5" width="15" height="15" rx="4.16667" transform="rotate(-180 17.5 17.5)" stroke="white" stroke-width="1.25" stroke-linecap="round" stroke-linejoin="round"/>
<path d="M2.80078 14.8902L6.36885 11.3221C6.68141 11.0096 7.10533 10.834 7.54736 10.834C7.98939 10.834 8.41331 11.0096 8.72587 11.3221L14.6815 17.2778" stroke="white" stroke-width="1.25" stroke-linecap="round" stroke-linejoin="round"/>
<path d="M17.5002 12.254L14.9005 9.65417C14.5879 9.34161 14.164 9.16602 13.7219 9.16602C13.2799 9.16602 12.856 9.34161 12.5434 9.65417L9.80273 12.3948" stroke="white" stroke-width="1.25" stroke-linecap="round" stroke-linejoin="round"/>
<path d="M7.42649 7.00926L7.42667 7.00909C7.4673 6.97041 7.53159 6.97196 7.57029 7.01256C7.609 7.05317 7.60749 7.11745 7.56691 7.15619C7.52633 7.19492 7.46204 7.19345 7.42328 7.15289C7.38452 7.11234 7.38596 7.04805 7.42649 7.00926" stroke="white" stroke-width="1.25" stroke-linecap="round" stroke-linejoin="round"/>
</svg>
