<svg width="42" height="42" viewBox="0 0 42 42" fill="none" xmlns="http://www.w3.org/2000/svg">
<rect width="42.0004" height="42" rx="10.5" fill="#F94B00"/>
<path d="M12.7582 34.9888C10.9185 35.1074 8.7858 34.2815 7.80578 32.5933C7.50086 32.0676 7.30583 31.4603 7.30583 31.4603C7.02358 30.5773 6.93636 29.597 7.04556 28.5321C7.17256 27.2972 7.52982 26.2334 7.76601 25.5296C8.87337 22.2324 11.0721 20.4442 12.6776 19.1386C14.2738 17.8411 16.0517 16.8317 17.9706 16.1326C17.9357 15.7959 17.8669 15.2815 17.7194 14.6769C17.3147 13.0213 16.2101 10.2552 14.6582 10.0985C14.2298 10.0553 13.4609 10.1805 13.2494 10.7474C13.1737 10.9504 13.1929 11.1487 13.2023 11.2354C13.2784 11.9473 13.9556 12.4446 14.5239 12.5329C14.9346 12.5967 15.2768 12.4446 15.482 12.3214C15.8068 13.1189 16.1319 13.9159 16.4567 14.7134C16.0663 14.9448 15.333 15.3009 14.3732 15.3083C13.3956 15.3161 12.6476 14.958 12.2544 14.729L12.2506 14.7266C11.902 14.5132 10.8418 13.8634 10.3868 12.4559C10.2776 12.12 10.0474 11.2276 10.2755 10.2264C10.6823 8.44174 12.3033 7.27528 13.6943 7.0451C13.875 7.01516 14.0589 7 14.2413 7C17.0533 7 19.1571 10.5278 19.5503 11.2346C20.328 12.6324 20.5889 13.914 20.8025 15.3297C21.8537 15.0536 22.93 14.8802 24.0094 14.8141C24.3457 14.7935 24.687 14.783 25.024 14.783C25.9995 14.783 26.9823 14.8705 27.9448 15.0424C28.1591 15.0808 28.3611 15.1847 28.5285 15.3425L29.212 15.9868C29.4712 16.231 29.601 16.6105 29.5588 17.0016C29.5162 17.3967 29.2982 17.7369 28.9891 17.8893L28.121 18.3182C27.971 18.3924 27.8126 18.4297 27.6504 18.4297C27.5977 18.4297 27.5443 18.4255 27.492 18.4177C26.6798 18.2917 25.8533 18.2276 25.0351 18.2276C24.6761 18.2276 24.3123 18.24 23.9539 18.2645C23.0043 18.3283 22.0532 18.4791 21.1207 18.714C21.1733 21.3377 20.7571 23.4436 20.4756 24.869C20.0471 27.0371 19.6511 28.98 18.436 30.9626C18.1366 31.4505 17.5882 32.3312 16.6567 33.1684C16.1103 33.6598 14.7353 34.8613 12.7582 34.9888ZM18.0306 19.7517C17.0418 20.1231 15.8616 20.7327 14.6614 21.7503C13.067 23.1018 12.1979 24.528 11.4471 25.759C10.7612 26.8842 10.4674 27.6024 10.3715 28.4687C10.3216 28.9174 10.1824 30.1721 10.8086 30.9241C11.2151 31.4124 11.7513 31.4568 12.0189 31.4747C12.3664 31.4976 13.3133 31.4739 14.6411 30.0776C16.9455 27.6541 17.5624 24.077 17.7766 22.7511C17.9772 21.5053 18.0236 20.4536 18.0306 19.7517Z" fill="white"/>
<path d="M30.7577 21.271C30.3763 21.271 30.0173 21.0544 29.7975 20.6912L29.7839 20.6687C29.6015 20.3674 29.5299 19.9851 29.5882 19.6208C29.6482 19.2433 29.8422 18.9108 30.1202 18.709L32.1145 17.2591L30.8055 15.0953C30.6226 14.7932 30.5511 14.4114 30.6094 14.0471C30.6694 13.6695 30.8634 13.3371 31.1414 13.1353L31.1617 13.1205C31.3473 12.9856 31.5615 12.9141 31.7806 12.9141C32.1619 12.9141 32.5209 13.1306 32.7407 13.4938L34.7845 16.8715C34.9673 17.1736 35.0388 17.5554 34.9806 17.9197C34.9206 18.2973 34.7266 18.6297 34.4485 18.8315L31.3769 21.0645C31.191 21.1994 30.9768 21.271 30.7577 21.271Z" fill="white"/>
</svg>
