<svg width="16" height="16" viewBox="0 0 16 16" fill="none" xmlns="http://www.w3.org/2000/svg">
<path fill-rule="evenodd" clip-rule="evenodd" d="M8.42906 11.6938C8.15756 11.5648 7.84244 11.5648 7.57094 11.6938L5.91463 12.4806C5.17237 12.8331 4.34527 12.1896 4.50452 11.3835L4.8233 9.7698C4.88717 9.44652 4.78767 9.11253 4.55729 8.8769L3.40962 7.70308C2.83144 7.11172 3.18015 6.11408 4.00083 6.01167L5.58908 5.8135C5.92041 5.77215 6.20925 5.56817 6.35902 5.26974L7.10624 3.78086C7.47525 3.0456 8.52475 3.0456 8.89376 3.78086L9.64098 5.26974C9.79075 5.56817 10.0796 5.77215 10.4109 5.8135L11.9992 6.01167C12.8198 6.11408 13.1686 7.11172 12.5904 7.70308L11.4427 8.8769C11.2123 9.11253 11.1128 9.44652 11.1767 9.7698L11.4955 11.3835C11.6547 12.1896 10.8276 12.8331 10.0854 12.4806L8.42906 11.6938Z" fill="white" stroke="white" stroke-width="1.5" stroke-linecap="round" stroke-linejoin="round"/>
</svg>
