<svg width="28" height="28" viewBox="0 0 28 28" fill="none" xmlns="http://www.w3.org/2000/svg">
<path d="M20.7236 22.061L20.3152 21.0355C20.1087 20.5152 19.7879 20.0485 19.3772 19.6682L19.3026 19.5993C18.6562 18.9997 17.8069 18.666 16.9249 18.666H11.0752C10.1932 18.666 9.34389 18.9997 8.69639 19.5982L8.62172 19.6682C8.21106 20.0485 7.89139 20.5152 7.68372 21.0355L7.27539 22.061" stroke="white" stroke-width="1.5" stroke-linecap="round" stroke-linejoin="round"/>
<path d="M16.8867 8.68817C18.4814 10.2828 18.4814 12.8682 16.8867 14.4629C15.2921 16.0575 12.7066 16.0575 11.112 14.4629C9.51735 12.8682 9.51735 10.2828 11.112 8.68817C12.7066 7.09353 15.2921 7.09353 16.8867 8.68817" stroke="white" stroke-width="1.5" stroke-linecap="round" stroke-linejoin="round"/>
<path d="M21.4246 6.57538C25.5251 10.6759 25.5251 17.3241 21.4246 21.4246C17.3241 25.5251 10.6759 25.5251 6.57538 21.4246C2.47487 17.3241 2.47487 10.6759 6.57538 6.57538C10.6759 2.47487 17.3241 2.47487 21.4246 6.57538" stroke="white" stroke-width="1.5" stroke-linecap="round" stroke-linejoin="round"/>
</svg>
