<svg width="40" height="40" viewBox="0 0 40 40" fill="none" xmlns="http://www.w3.org/2000/svg">
<rect width="40" height="40" rx="12" fill="#FFF9E6"/>
<path d="M14.5996 14V11C14.5996 10.7791 14.7791 10.5996 15 10.5996C15.2209 10.5996 15.4004 10.7791 15.4004 11V14L15.3916 14.0811C15.3541 14.2631 15.1931 14.4004 15 14.4004C14.7791 14.4004 14.5996 14.2209 14.5996 14Z" stroke="#EAB305" stroke-width="0.8" stroke-linecap="round" stroke-linejoin="round"/>
<path d="M18.5 11V14" stroke="#EAB305" stroke-width="1.5" stroke-linecap="round" stroke-linejoin="round"/>
<path d="M22 11V14" stroke="#EAB305" stroke-width="1.5" stroke-linecap="round" stroke-linejoin="round"/>
<path d="M25 25H27C28.6569 25 30 23.6569 30 22V19.5C30 18.1193 28.8807 17 27.5 17H24" stroke="#EAB305" stroke-width="1.5" stroke-linecap="round" stroke-linejoin="round"/>
<path fill-rule="evenodd" clip-rule="evenodd" d="M21.5 29H14.5C12.567 29 11 27.433 11 25.5L11 18C11 17.4477 11.4477 17 12 17H24C24.5523 17 25 17.4477 25 18V25.5C25 27.433 23.433 29 21.5 29Z" stroke="#EAB305" stroke-width="1.5" stroke-linecap="round" stroke-linejoin="round"/>
</svg>
