<svg width="36" height="36" viewBox="0 0 36 36" fill="none" xmlns="http://www.w3.org/2000/svg">
<rect width="36" height="36" rx="12" fill="#FFF9E6"/>
<path d="M13.4346 13V10.5C13.4346 10.2791 13.614 10.0996 13.835 10.0996C14.0557 10.0998 14.2344 10.2792 14.2344 10.5V13C14.2344 13.2208 14.0557 13.4002 13.835 13.4004C13.614 13.4004 13.4346 13.2209 13.4346 13Z" stroke="#EAB305" stroke-width="0.8" stroke-linecap="round" stroke-linejoin="round"/>
<path d="M16.7507 10.5V13" stroke="#EAB305" stroke-width="1.5" stroke-linecap="round" stroke-linejoin="round"/>
<path d="M19.6667 10.5V13" stroke="#EAB305" stroke-width="1.5" stroke-linecap="round" stroke-linejoin="round"/>
<path d="M22.1673 22.1667H23.834C25.2147 22.1667 26.334 21.0474 26.334 19.6667V17.5833C26.334 16.4327 25.4012 15.5 24.2507 15.5H21.334" stroke="#EAB305" stroke-width="1.5" stroke-linecap="round" stroke-linejoin="round"/>
<path fill-rule="evenodd" clip-rule="evenodd" d="M19.2513 25.5H13.418C11.8071 25.5 10.5013 24.1942 10.5013 22.5833L10.5013 16.3333C10.5013 15.8731 10.8744 15.5 11.3346 15.5L21.3346 15.5C21.7949 15.5 22.168 15.8731 22.168 16.3333V22.5833C22.168 24.1942 20.8621 25.5 19.2513 25.5Z" stroke="#EAB305" stroke-width="1.5" stroke-linecap="round" stroke-linejoin="round"/>
</svg>