<svg width="40" height="40" viewBox="0 0 40 40" fill="none" xmlns="http://www.w3.org/2000/svg">
<rect width="40" height="40" rx="12" fill="#E6E9FF"/>
<path d="M25.5857 15.4142L22.3341 17.9693L15.175 12.6C14.6557 12.2105 14.0241 12 13.375 12H11V12.639C11 12.9459 11.1409 13.2357 11.3822 13.4253L19.7496 20L11 26.875V28H13.375C14.0241 28 14.6557 27.7895 15.175 27.4L22.3341 22.0307L25.5857 24.5858" stroke="#374ACF" stroke-width="1.5" stroke-linecap="round" stroke-linejoin="round"/>
<circle cx="27" cy="26" r="2" stroke="#374ACF" stroke-width="1.5" stroke-linecap="round" stroke-linejoin="round"/>
<circle cx="27" cy="14" r="2" stroke="#374ACF" stroke-width="1.5" stroke-linecap="round" stroke-linejoin="round"/>
<path d="M25 20H26" stroke="#374ACF" stroke-width="1.5" stroke-linecap="round" stroke-linejoin="round"/>
<path d="M29 20H30" stroke="#374ACF" stroke-width="1.5" stroke-linecap="round" stroke-linejoin="round"/>
<path d="M15 20H14" stroke="#374ACF" stroke-width="1.5" stroke-linecap="round" stroke-linejoin="round"/>
<path d="M11 20H10" stroke="#374ACF" stroke-width="1.5" stroke-linecap="round" stroke-linejoin="round"/>
<path d="M25 20H26" stroke="#374ACF" stroke-width="1.5" stroke-linecap="round" stroke-linejoin="round"/>
<path d="M29 20H30" stroke="#374ACF" stroke-width="1.5" stroke-linecap="round" stroke-linejoin="round"/>
<path d="M15 20H14" stroke="#374ACF" stroke-width="1.5" stroke-linecap="round" stroke-linejoin="round"/>
<path d="M11 20H10" stroke="#374ACF" stroke-width="1.5" stroke-linecap="round" stroke-linejoin="round"/>
</svg>
