<svg width="36" height="36" viewBox="0 0 36 36" fill="none" xmlns="http://www.w3.org/2000/svg">
<rect width="36" height="36" rx="12" fill="#DAFFCC"/>
<path d="M25.5023 17.166V21.3344C25.5023 23.6366 23.6361 25.5028 21.3339 25.5028H14.6645C12.3624 25.5028 10.4961 23.6366 10.4961 21.3344V20.5007" stroke="#308F00" stroke-width="1.5" stroke-linecap="round" stroke-linejoin="round"/>
<path d="M18.8329 10.4961H14.6645C12.3624 10.4961 10.4961 12.3624 10.4961 14.6645V15.4982" stroke="#308F00" stroke-width="1.5" stroke-linecap="round" stroke-linejoin="round"/>
<path d="M23.0013 17.9988H19.8892L18.4444 21.3335L15.5532 14.6641L13.9976 17.9988H10.4961" stroke="#308F00" stroke-width="1.5" stroke-linecap="round" stroke-linejoin="round"/>
<path fill-rule="evenodd" clip-rule="evenodd" d="M23.849 10.9423C24.1087 10.6526 24.4813 10.4899 24.8703 10.4963C25.6847 10.517 26.3347 11.1822 26.3367 11.9969C26.3367 13.5067 24.3409 14.6647 23.849 14.6647C23.3572 14.6647 21.3613 13.5067 21.3613 11.9969C21.3611 11.1813 22.0124 10.5149 22.8278 10.4963C23.2167 10.4903 23.5891 10.6529 23.849 10.9423Z" stroke="#308F00" stroke-width="1.5" stroke-linecap="round" stroke-linejoin="round"/>
</svg>
