<svg width="36" height="36" viewBox="0 0 36 36" fill="none" xmlns="http://www.w3.org/2000/svg">
<rect width="36" height="36" rx="12" fill="#FFE9E9"/>
<ellipse cx="21.8516" cy="14.1488" rx="4.19685" ry="3.00131" transform="rotate(-45 21.8516 14.1488)" stroke="#FF2A2A" stroke-width="1.5" stroke-linecap="round" stroke-linejoin="round"/>
<path d="M14.9974 19.2363L10.8661 23.3676C10.378 23.8558 10.378 24.6472 10.8661 25.1354V25.1354C11.3543 25.6236 12.1457 25.6236 12.6339 25.1354L16.7652 21.0041" stroke="#FF2A2A" stroke-width="1.5" stroke-linecap="round" stroke-linejoin="round"/>
<path d="M19.5094 21.2773L23.3662 25.1342C23.8544 25.6223 24.6458 25.6223 25.134 25.1342V25.1342C25.6222 24.646 25.6222 23.8546 25.134 23.3664L13.0449 11.2773" stroke="#FF2A2A" stroke-width="1.5" stroke-linecap="round" stroke-linejoin="round"/>
<path d="M13.0441 11.2773L12.9916 11.3298L12.9811 11.3404C11.3576 12.9638 12.235 16.4733 14.9408 19.1791L17.6845 21.9229C17.8408 22.0792 18.0528 22.167 18.2738 22.167C18.4948 22.167 18.7068 22.0792 18.8631 21.9229L21.2764 19.5095" stroke="#FF2A2A" stroke-width="1.5" stroke-linecap="round" stroke-linejoin="round"/>
</svg>