<svg width="40" height="40" viewBox="0 0 40 40" fill="none" xmlns="http://www.w3.org/2000/svg">
<rect width="40" height="40" rx="12" fill="#FFE6F5"/>
<path fill-rule="evenodd" clip-rule="evenodd" d="M29 18.3726V13.9846C29 13.2336 28.444 12.5986 27.7 12.4976L16.921 11.0476C13.787 10.6256 11 13.0626 11 16.2246V16.2246C11 19.4046 13.817 21.8466 16.965 21.3956L27.713 19.8566C28.451 19.7516 29 19.1186 29 18.3726Z" stroke="#FF009F" stroke-width="1.5" stroke-linecap="round" stroke-linejoin="round"/>
<path d="M17.8429 14.9364C18.5263 15.6198 18.5263 16.7279 17.8429 17.4113C17.1595 18.0947 16.0514 18.0947 15.368 17.4113C14.6846 16.7278 14.6846 15.6198 15.368 14.9364C16.0515 14.253 17.1595 14.253 17.8429 14.9364" stroke="#FF009F" stroke-width="1.5" stroke-linecap="round" stroke-linejoin="round"/>
<path d="M25.75 12.3105V20.0305" stroke="#FF009F" stroke-width="1.5" stroke-linecap="round" stroke-linejoin="round"/>
<path d="M15.002 21.2997C15.249 23.0307 15.583 25.3637 15.817 27.0067C15.981 28.1527 16.962 29.0007 18.12 29.0007V29.0007C19.535 29.0007 20.623 27.7507 20.423 26.3497C20.176 24.6177 19.919 22.8207 19.66 21.0117" stroke="#FF009F" stroke-width="1.5" stroke-linecap="round" stroke-linejoin="round"/>
</svg>
