<svg width="36" height="36" viewBox="0 0 36 36" fill="none" xmlns="http://www.w3.org/2000/svg">
<rect width="36" height="36" rx="12" fill="#FFE5F5"/>
<path d="M19.7511 19.1699L20.5002 21.3324" stroke="#FF009F" stroke-width="1.5" stroke-linecap="round" stroke-linejoin="round"/>
<path d="M16.2511 19.1699L15.5002 21.3324" stroke="#FF009F" stroke-width="1.5" stroke-linecap="round" stroke-linejoin="round"/>
<path d="M25.5 25.5007V24.2851C25.5 23.063 24.6165 22.0201 23.411 21.8192L20.5 21.334L18 23.834L15.5 21.334L12.589 21.8192C11.3835 22.0201 10.5 23.063 10.5 24.2851V25.5007" stroke="#FF009F" stroke-width="1.5" stroke-linecap="round" stroke-linejoin="round"/>
<path d="M18.0007 25.5007V23.834" stroke="#FF009F" stroke-width="1.5" stroke-linecap="round" stroke-linejoin="round"/>
<path d="M23.8327 21.9281V15.0833C23.8327 11.8617 21.221 9.25 17.9993 9.25V9.25C14.7777 9.25 12.166 11.8617 12.166 15.0833V21.9283" stroke="#FF009F" stroke-width="1.5" stroke-linecap="round" stroke-linejoin="round"/>
<path d="M14.666 14.6668H16.136C17.278 14.6667 18.322 14.0215 18.8327 13.0001V13L18.9207 13.176C19.3775 14.0896 20.3112 14.6667 21.3327 14.6667V14.6667" stroke="#FF009F" stroke-width="1.5" stroke-linecap="round" stroke-linejoin="round"/>
<path d="M20.916 25.2917H22.5827" stroke="#FF009F" stroke-width="1.5" stroke-linecap="round" stroke-linejoin="round"/>
<path d="M21.3327 14.666V16.3327C21.3327 18.1736 19.8403 19.666 17.9993 19.666V19.666C16.1584 19.666 14.666 18.1736 14.666 16.3327V14.666" stroke="#FF009F" stroke-width="1.5" stroke-linecap="round" stroke-linejoin="round"/>
</svg>