<svg width="36" height="36" viewBox="0 0 36 36" fill="none" xmlns="http://www.w3.org/2000/svg">
<rect width="36" height="36" rx="12" fill="#E8FFF0"/>
<path d="M22.5837 17.1653C21.0663 17.1653 19.6984 16.2513 19.1177 14.8494C18.537 13.4476 18.858 11.834 19.9309 10.761C21.0039 9.68809 22.6175 9.36712 24.0194 9.94779C25.4212 10.5285 26.3353 11.8964 26.3353 13.4138C26.3353 15.4857 24.6556 17.1653 22.5837 17.1653" stroke="#00D34D" stroke-width="1.5" stroke-linecap="round" stroke-linejoin="round"/>
<path d="M19.0255 12.2285C18.8673 12.2491 18.7106 12.2794 18.5561 12.3194L17.7608 12.5428C17.3685 12.6529 16.9535 12.6529 16.5611 12.5428L15.7658 12.3194C14.5154 11.9698 13.1735 12.2253 12.139 13.0098C11.1045 13.7944 10.4967 15.0177 10.4961 16.3161V16.3936C10.4931 18.9564 11.0086 21.4934 12.0118 23.8517L12.2852 24.4936C12.5456 25.1058 13.1465 25.5032 13.8117 25.5032V25.5032C14.4912 25.5029 15.1019 25.0884 15.3531 24.457L16.1443 22.4645C16.3087 22.0468 16.7118 21.7723 17.1606 21.7723C17.6094 21.7723 18.0125 22.0468 18.1768 22.4645L18.968 24.457C19.2195 25.0885 19.8305 25.503 20.5103 25.5032V25.5032C21.1755 25.5032 21.7764 25.1058 22.0368 24.4936L22.3102 23.8517C23.2381 21.6629 23.7471 19.3195 23.8108 16.943" stroke="#00D34D" stroke-width="1.5" stroke-linecap="round" stroke-linejoin="round"/>
<path d="M22.5848 12.1641V14.6651" stroke="#00D34D" stroke-width="1.5" stroke-linecap="round" stroke-linejoin="round"/>
<path d="M23.835 13.4129H21.334" stroke="#00D34D" stroke-width="1.5" stroke-linecap="round" stroke-linejoin="round"/>
</svg>
