<svg width="40" height="40" viewBox="0 0 40 40" fill="none" xmlns="http://www.w3.org/2000/svg">
<rect width="40" height="40" rx="12" fill="#E6E8FF"/>
<path d="M13.0678 28.0017H11.8386C11.0979 28.0017 10.468 27.4613 10.3554 26.7292L10.0191 24.5433C9.8564 23.5198 10.5035 22.5419 11.5092 22.2915C12.9965 21.9395 14.5231 21.7815 16.051 21.8215V21.8194C16.9506 21.035 17.9455 20.3672 19.0123 19.8318C21.2358 18.7201 23.8531 18.7201 26.0767 19.8318L28.3348 20.9608C28.653 21.118 28.9833 21.2495 29.3224 21.3539C29.7307 21.4866 30.0059 21.8686 30.0024 22.2979V26.5012C30.0024 27.3299 29.3305 28.0018 28.5018 28.0018H26.9522" stroke="#6B7DFF" stroke-width="1.5" stroke-linecap="round" stroke-linejoin="round"/>
<path d="M19.9983 14.9965V13.9961" stroke="#6B7DFF" stroke-width="1.5" stroke-linecap="round" stroke-linejoin="round"/>
<path d="M16.4984 13.4962L15.9982 13.9964" stroke="#6B7DFF" stroke-width="1.5" stroke-linecap="round" stroke-linejoin="round"/>
<path d="M24.0003 13.9964L23.5001 13.4962" stroke="#6B7DFF" stroke-width="1.5" stroke-linecap="round" stroke-linejoin="round"/>
<path d="M26.0011 10.9963H13.9961" stroke="#6B7DFF" stroke-width="1.5" stroke-linecap="round" stroke-linejoin="round"/>
<circle cx="14.6511" cy="27.2527" r="1.75073" stroke="#6B7DFF" stroke-width="1.5" stroke-linecap="round" stroke-linejoin="round"/>
<circle cx="25.3718" cy="27.2527" r="1.75073" stroke="#6B7DFF" stroke-width="1.5" stroke-linecap="round" stroke-linejoin="round"/>
<path d="M23.7249 28.0022H16.2324" stroke="#6B7DFF" stroke-width="1.5" stroke-linecap="round" stroke-linejoin="round"/>
</svg>
